<?xml version="1.0" encoding="utf-8"?>
<!-- Generator: Adobe Illustrator 27.5.0, SVG Export Plug-In . SVG Version: 6.00 Build 0)  -->
<svg version="1.1" id="Слой_1" xmlns="http://www.w3.org/2000/svg" xmlns:xlink="http://www.w3.org/1999/xlink" x="0px" y="0px"
	 viewBox="0 0 3000 2000" style="enable-background:new 0 0 3000 2000;" xml:space="preserve">
<g>
	<rect style="fill:#E3EAFF;" width="3000" height="2000"/>
	<path style="fill:#FFFFFF;" d="M919.287,85.183c75.13,0,155.993,22.288,240.345,66.246
		c145.572,75.862,271.292,141.38,424.94,141.38c61.079,0,123.011-10.275,189.335-31.412c55.572-17.708,140.603-38.814,230.1-38.814
		c71.575,0,134.432,13.57,186.823,40.334c63.296,32.334,111.067,83.665,141.987,152.57c32.025,71.367,47.225,141.248,46.467,213.637
		c-0.65,62.114-12.775,115.308-23.475,162.238c-9.457,41.49-17.626,77.323-14.761,107.17c10.512,109.514,52.49,198.368,93.086,284.3
		c35.273,74.66,68.592,145.182,78.807,223.51c5.598,42.928,3.734,84.164-5.697,126.064c-10.326,45.883-29.441,91.5-58.438,139.458
		c-38.839,64.238-84.831,107.82-140.604,133.238c-53.395,24.333-106.9,27.453-147.549,27.453
		c-206.575,0-256.829-14.725-346.516-35.418c-73.533-16.968-118.847-28.448-190.503-19.613
		c-66.889,8.236-135.94,32.708-194.666,55.56c-20.83,8.102-42.167,16.733-62.801,25.08
		c-54.927,22.219-111.722,45.193-168.727,62.293c-31.777,9.534-74.66,14.575-124.01,14.575c-57.139,0-119.707-6.716-180.938-19.423
		c-75.562-15.684-220.25-55.911-340.329-149.103c-54.107-41.992-96.64-89.887-126.416-142.351
		c-33.584-59.172-51.031-124.331-51.857-193.667c-1.384-116.236,19.176-208.184,62.854-281.099
		c38.216-63.797,86.8-101.815,129.665-135.356c41.241-32.271,73.816-57.761,85.108-96.607
		c13.061-44.938-1.732-108.797-46.556-200.974c-70.308-144.58-61.055-332.006,23.025-466.387
		C694.516,143.738,797.968,85.183,919.287,85.183L919.287,85.183z M919.287,63.183c-64.221,0-123.783,15.283-177.033,45.424
		c-53.125,30.069-97.844,73.736-132.915,129.789c-21.729,34.727-39.016,73.282-51.382,114.594
		c-12.046,40.244-19.229,82.422-21.349,125.359c-2.119,42.925,0.863,85.753,8.865,127.295c8.209,42.613,21.567,83.132,39.705,120.43
		c21.89,45.016,36.065,82.156,43.337,113.546c6.777,29.255,7.392,52.697,1.878,71.666c-9.312,32.035-37.93,54.429-77.54,85.423
		c-44.373,34.721-94.665,74.074-134.98,141.376c-45.83,76.507-67.413,172.238-65.98,292.667
		c0.87,73.098,19.28,141.82,54.721,204.264c31.218,55.003,75.649,105.091,132.061,148.872
		c123.583,95.912,271.922,137.193,349.347,153.264c62.675,13.007,126.785,19.882,185.401,19.882c51.468,0,96.535-5.36,130.34-15.503
		c57.979-17.391,115.252-40.559,170.639-62.965c20.538-8.309,41.76-16.895,62.541-24.978c57.463-22.36,124.896-46.288,189.38-54.229
		c67.69-8.347,110.008,2.405,182.856,19.213c91.238,21.052,144.119,35.984,351.474,35.984c42.872,0,99.426-3.346,156.672-29.433
		c59.938-27.317,109.104-73.723,150.308-141.874c30.24-50.017,50.219-97.777,61.074-146.01
		c10.01-44.465,11.988-88.211,6.049-133.741c-10.662-81.758-44.697-153.795-80.729-230.063
		c-39.792-84.227-80.934-171.315-91.078-277.003c-2.525-26.312,5.275-60.534,14.308-100.162
		c10.948-48.022,23.353-102.436,24.026-166.914c0.793-75.64-15.037-148.542-48.393-222.875
		c-33.023-73.591-84.182-128.484-152.051-163.155c-55.521-28.36-121.744-42.741-196.832-42.741
		c-92.324,0-179.72,21.672-236.779,39.852c-64.133,20.439-123.88,30.374-182.655,30.374c-148.258,0-271.762-64.361-414.767-138.888
		C1082.277,86.309,997.993,63.183,919.287,63.183L919.287,63.183z"/>
	<path style="fill:#FFFFFF;" d="M2423.134,1656.342c-109.941,181.84-256.225,141.586-365.271,144.016
		c-144.621,3.245-266.051-48.477-360.963-55.029c-25.58-1.763-51.222-0.75-76.938,2.421c-66.839,8.23-134.126,31.015-201.873,57.377
		c-75.852,29.501-152.268,63.5-229.267,86.597c-60.496,18.152-172.006,19.049-290.233-5.487
		c-218.376-45.328-491.474-185.115-494.699-456.104c-6.091-511.583,431.856-307.697,228.053-726.799
		c-142.221-292.465,68.05-757.604,513.826-525.302c203.803,106.211,376.026,195.198,637.248,111.949
		c155.586-49.575,421.959-86.107,522.432,137.788c100.472,223.904-4.543,366.528,5.738,473.63
		C2340.599,1207.837,2603.961,1357.257,2423.134,1656.342z"/>
	<g>
		<path style="fill:#95A6DB;" d="M692.99,1306.835c-14.509-6.734-36.83-37.545-24.353-61.656
			c7.585-12.82,32.405-9.201,43.329-17.221c10.923-8.02,2.19-32.314-5.11-45.759c-7.3-13.443,1.356-32.261,29.309-35.405
			c21.454-2.412,29.479-4.896,30.683-21.388c1.205-16.489-10.086-46.598,22.28-46.598c16.56,1.882,27.529,4.704,19.786,8.184
			c-7.743,3.482-23.675-7.648-29.445,7.514c-5.771,15.162,7.164,33.769-2.384,48.281c-15.982,24.29-50.546,8.207-57.582,24.463
			c-7.035,16.254,21.616,47.303,7.232,62.979c-14.383,15.677-41.887,3.646-48.646,23.398
			C671.33,1273.38,698.468,1297.763,692.99,1306.835z"/>
	</g>
	<g>
		<path style="fill:#95A6DB;" d="M2098.149,1197.288c11.232-8.767,44.725-13.945,58.77,5.741
			c7.082,11.222-5.871,29.427-3.951,41.345c1.921,11.916,24.729,14.862,38.351,14.537c13.624-0.326,25.024,14.18,16.161,37.616
			c-6.803,17.987-8.093,25.358,4.49,33.012c12.584,7.653,41.037,10.935,27.89,36.591c-8.219,12.363-14.911,19.913-14.526,12.359
			c0.385-7.551,15.68-15.66,6.006-26.394c-9.676-10.733-29.68-8.038-37.306-21.503c-12.764-22.537,14.026-43.404,3.999-55.584
			c-10.027-12.18-46.279-2.08-52.863-19.852c-6.585-17.77,14.125-34.686,1.213-48.067
			C2133.47,1193.708,2103.116,1205.315,2098.149,1197.288z"/>
	</g>
	<g>
		<defs>
			<path id="SVGID_1_" d="M2423.146,1656.342c-109.941,181.84-256.225,141.586-365.271,144.016
				c-144.621,3.245-266.051-48.477-360.963-55.029c-25.58-1.763-51.222-0.75-76.938,2.421
				c-66.839,8.23-134.126,31.015-201.873,57.377c-75.852,29.501-152.268,63.5-229.268,86.597
				c-60.495,18.152-172.005,19.049-290.232-5.487c-218.376-45.328-491.474-185.115-494.699-456.104
				c-6.091-511.583,431.856-307.697,228.053-726.799c-142.221-292.465,68.05-757.604,513.826-525.302
				c203.803,106.211,376.026,195.198,637.247,111.949c155.587-49.575,421.96-86.107,522.433,137.788
				c100.472,223.904-4.543,366.528,5.738,473.63C2340.609,1207.837,2603.973,1357.257,2423.146,1656.342z"/>
		</defs>
		<clipPath id="SVGID_00000085933171512191954820000006487114232814401438_">
			<use xlink:href="#SVGID_1_"  style="overflow:visible;"/>
		</clipPath>
		<g style="clip-path:url(#SVGID_00000085933171512191954820000006487114232814401438_);">
			<path style="fill:#DE623C;" d="M1230.283,1138.458c0,0-166.117,173.642-221.969,321.771
				c65.565-19.427,202.618-22.253,202.618-22.253l150.56-167.557L1230.283,1138.458z"/>
			<path style="fill:#062440;" d="M1338.656,1175.63c-108.387-17.058-344.845-87.231-268.91-253.322
				c75.934-166.09,130.729-112.183,59.145-282.411c-71.583-170.229,27.72-334.079,154.789-321.898
				c127.069,12.182,176.493,103.604,319.182,50.602c142.688-53.002,291.764,61.309,259.273,191.555
				c-32.489,130.247-45.114,192.383,19.513,248.588c64.627,56.207,312.156,82.511,245.147,259.838
				c-67.009,177.326-113.576,176.196-64.064,250.957c49.511,74.762-10.812,182.336-148.795,195.78
				c-137.983,13.445-270.548-14.2-349.383-155.984C1485.719,1217.548,1338.656,1175.63,1338.656,1175.63z"/>
			<path style="fill:#DE623C;" d="M1639.731,866.674l-6.96,194.24c0,0-101.14,72.25-179.344,24.123
				c12.031-60.155,28.417-159.117,28.417-159.117L1639.731,866.674z"/>
			<path style="fill:#5578E6;" d="M1452.147,995.818c0,0-126.629,16.171-262.542,188.327c19.053,13.19,104.42,91.87,104.42,91.87
				L1452.147,995.818z"/>
			<g>
				
					<ellipse transform="matrix(0.984 -0.1781 0.1781 0.984 -103.2303 272.3765)" style="fill:#F37A50;" cx="1465.153" cy="711.041" rx="204.287" ry="274.615"/>
				<path style="fill:#062440;" d="M1679.539,672.227c-113.539,5.901-227.908-37.254-300.65-106.61
					c-20.736,100.211-114.755,181.817-114.755,181.817s-111.287-164.357,14.841-286.725
					C1399.299,343.975,1737.466,347.63,1679.539,672.227z"/>
				<path d="M1529.067,756.432c11.799-2.137,19.632-13.434,17.495-25.231c-2.136-11.799-13.433-19.632-25.23-17.495
					c-11.799,2.136-19.632,13.433-17.496,25.23C1505.973,750.734,1517.269,758.567,1529.067,756.432z"/>
				<path d="M1366.64,785.838c11.798-2.137,19.631-13.432,17.495-25.232c-2.136-11.799-13.433-19.631-25.23-17.495
					c-11.799,2.136-19.633,13.433-17.496,25.23C1343.544,780.142,1354.841,787.974,1366.64,785.838z"/>
				<path style="fill:#DE623C;" d="M1437.209,771.845c-14.672,38.451-19.706,54.885-28.019,64.571
					c14.657,21.674,55.901,21.762,65.701,15.649c-30.174-4.667-39.337-20.959-39.337-20.959L1437.209,771.845z"/>
				<path style="fill:#F37A50;" d="M1639.916,700.935c-17.754,33.344-12.113,71.041,12.6,84.199
					c24.712,13.157,59.138-3.207,76.892-36.551c17.754-33.344,12.113-71.042-12.599-84.2
					C1692.096,651.226,1657.671,667.59,1639.916,700.935z"/>
				<g>
					<path style="fill:#DE623C;" d="M1671.543,760.301c0.887-0.16,1.757-0.497,2.559-1.022c3.214-2.099,4.119-6.407,2.019-9.621
						c-6.977-10.68-8.771-19.963-5.335-27.592c5.306-11.778,21.723-18.092,34.145-19.915c3.797-0.549,6.425-4.089,5.867-7.888
						c-0.558-3.798-4.089-6.426-7.887-5.868c-16.673,2.448-37.197,11.079-44.802,27.961c-3.788,8.411-5.758,22.335,6.372,40.906
						C1666.057,759.672,1668.875,760.783,1671.543,760.301z"/>
				</g>
				<g>
					<path style="fill:#062440;" d="M1317.652,740.124c0.811-0.147,1.615-0.386,2.404-0.725
						c34.435-14.799,48.179-37.236,48.748-38.185c3.137-5.234,1.438-12.021-3.797-15.159c-5.214-3.126-11.967-1.453-15.122,3.733
						c-0.293,0.463-11.324,17.602-38.556,29.305c-5.607,2.409-8.199,8.908-5.789,14.516
						C1307.611,738.429,1312.703,741.021,1317.652,740.124z"/>
				</g>
				<g>
					<path style="fill:#062440;" d="M1562.256,695.841c-0.811,0.146-1.648,0.204-2.506,0.163
						c-37.437-1.787-58.176-17.982-59.04-18.669c-4.773-3.803-5.563-10.756-1.76-15.529c3.787-4.755,10.698-5.556,15.472-1.805
						c0.437,0.331,16.776,12.514,46.382,13.927c6.097,0.291,10.803,5.469,10.512,11.565
						C1571.065,690.731,1567.205,694.944,1562.256,695.841z"/>
				</g>
				<path style="fill:#FFFFFF;" d="M1480.856,880.973c21.817-2.547,40.944,7.723,42.721,22.938
					c1.776,15.215-19.915,19.46-41.732,22.009c-21.817,2.547-35.498,2.432-37.274-12.784
					C1442.793,897.921,1459.039,883.521,1480.856,880.973z"/>
			</g>
			<g>
				<g>
					<g>
						<path style="fill:#7A94E6;" d="M1754.483,1688.561c-7.265-41.015-12.388-97.256-5.906-169.744
							c0.991-4.028,2.014-8.151,3.061-12.363c8.257-33.104,18.278-71.737,28.341-112.577c2.054-8.336,4.115-16.767,6.153-25.263
							c26.614-110.619,51.021-231.996,40.736-301.59c-1.958-13.283-5.18-24.681-9.894-33.76c0.023-4.155-8.16-10.837-21.171-18.477
							c-39.545-23.217-123.67-55.273-157.253-52.068c0,0-0.831,2.39-2.493,6.458c-9.927,24.328-49.671,108.836-120.593,103.146
							c-40.4-3.245-44.532-72.073-44.884-80.409c-0.024-0.536-0.032-0.823-0.032-0.823c-6.234,0.975-12.372,2.573-18.406,4.747
							c-57.895,20.852-106.215,94.508-139.334,175.14c-4.963,12.083-9.582,24.319-13.842,36.564
							c-2.095,6.01-4.093,12.021-6.011,18.015c-4.268,13.354-6.817,27.412-8.057,42.085c-2.221,26.271-0.279,54.516,3.421,84.222
							c1.774,14.282,3.957,28.907,6.274,43.805c11.418,73.645,25.602,151.002,12.443,229.766
							c-6.207,36.942-41.43,163.958-62.842,247.977h600.295C1812.458,1800.04,1757.169,1697.241,1754.483,1688.561z"/>
					</g>
				</g>
			</g>
			<g>
				<path style="fill:#F37A50;" d="M1857.077,1240.416c-49.384,109.329-213.73,361.891-301.31,391.607l-114.936-135.012
					c0,0,38.237-63.244,76.228-140.91c52.627-107.589,140.234-229.286,161.509-261.634
					C1742.147,997.31,1938.042,1062.082,1857.077,1240.416z"/>
				<path style="fill:#F37A50;" d="M999.871,1716.25c0,0,6.773,1.136,18.985,2.715c75.222,9.686,356.943,35.768,536.912-86.938
					c9.572-11.474-103.564-141.202-103.564-141.202c-3.532,1.648-7.066,3.287-10.607,4.905c-26.263,12.045-52.875,23.45-79.342,34.2
					c-81.516,33.103-161.636,59.917-226.012,79.607c-71.053,21.742-122.922,34.816-136.353,38.121
					c-2.254,0.551-3.425,0.834-3.425,0.834L999.871,1716.25z"/>
				<path style="fill:#F37A50;" d="M1028.629,1707.046c-31.004,47.619-139.503,74.809-207.461,45.916
					c-67.957-28.89-14.51-81.317,19.64-84.518c34.148-3.199,79.597-0.521,77.029-18.137c-2.566-17.615-20.725-22.621-24.667-43.712
					c-3.52-18.823,61.163-19.291,106.593,40.785C1012.232,1673.152,1028.629,1707.046,1028.629,1707.046z"/>
			</g>
			<path style="fill:#5578E6;" d="M1805.907,1015.968c19.403,6.588,103.181,18.406,60.221,213.512
				c-18.833,75.69-81.29,167.215-81.29,167.215s-131.44-73.851-207.226-180.324
				C1590.829,1178.322,1706.616,997.629,1805.907,1015.968z"/>
			<path style="fill:#DE623C;" d="M1408.544,1382.133c-73.31,6.824-148.655-21.072-309.132,18.524
				c-145.655,35.939-99.942,142.146-26.02,149.314c105.301,10.214,352.761-108.407,352.761-108.407L1408.544,1382.133z"/>
			<path style="fill:#FA897A;" d="M1560.028,1343.314c5.725-34.888,2.624-66.033,36.37-52.168
				c33.745,13.864,24.565,61.547,21.254,85.153c-3.312,23.605-8.267,41.171,8.342,35.202c16.608-5.972,23.421,22.375,4.614,32.186
				c-18.807,9.813-48.254-5.109-56.307,28.622s-34.854,100.522-47.821,74.633c-12.969-25.89,12.406-58.852-1.902-63.349
				c-14.31-4.498-35.146-15.721-14.84-30.302c20.307-14.583,32.845-21.123,30.701-41.344
				C1538.296,1391.728,1560.028,1343.314,1560.028,1343.314z"/>
			<path style="fill:#FA897A;" d="M1269.354,1581.303c35.871-6.589,62.662,36.15,26.512,43.381
				c-36.152,7.23-51.926-15.023-75.918,3.614c-23.993,18.64-80.818,45.439-66.277,20.485
				C1168.212,1623.831,1210.309,1592.148,1269.354,1581.303z"/>
			<g>
				
					<ellipse transform="matrix(0.7071 -0.7071 0.7071 0.7071 -559.3492 1535.2776)" style="fill:#FA0C44;" cx="1573.569" cy="1442.833" rx="13.761" ry="13.761"/>
				<path style="fill:#FA0C44;" d="M1573.535,1504.672c4.2,4.201,11.011,4.201,15.21,0c4.2-4.201,4.2-11.011,0-15.21
					c-4.199-4.2-11.01-4.2-15.21,0C1569.335,1493.661,1569.335,1500.471,1573.535,1504.672z"/>
				<path style="fill:#FA0C44;" d="M1576.808,1343.27c0,7.6,6.16,13.76,13.761,13.76c7.6,0,13.76-6.16,13.76-13.76
					s-6.16-13.761-13.76-13.761C1582.968,1329.509,1576.808,1335.67,1576.808,1343.27z"/>
				<path style="fill:#FA0C44;" d="M1519.516,1435.1c0,4.837,3.921,8.758,8.759,8.758c4.837,0,8.758-3.921,8.758-8.758
					c0-4.837-3.921-8.758-8.758-8.758C1523.437,1426.343,1519.516,1430.264,1519.516,1435.1z"/>
				<path style="fill:#FA0C44;" d="M1515.435,1521.35c0,4.836,3.921,8.758,8.758,8.758s8.758-3.922,8.758-8.758
					c0-4.837-3.921-8.759-8.758-8.759S1515.435,1516.514,1515.435,1521.35z"/>
				<path style="fill:#FA0C44;" d="M1610.95,1422.597c0,4.837,3.922,8.758,8.759,8.758c4.836,0,8.758-3.921,8.758-8.758
					c0-4.838-3.922-8.759-8.758-8.759C1614.872,1413.838,1610.95,1417.759,1610.95,1422.597z"/>
				<path style="fill:#FA0C44;" d="M1512.86,1468.809c0,3.536,2.866,6.402,6.402,6.402s6.403-2.866,6.403-6.402
					s-2.867-6.403-6.403-6.403S1512.86,1465.272,1512.86,1468.809z"/>
				<path style="fill:#FA0C44;" d="M1546.048,1478.154c0,2.885,2.339,5.224,5.226,5.224c2.885,0,5.224-2.339,5.224-5.224
					c0-2.887-2.34-5.226-5.224-5.226C1548.387,1472.929,1546.048,1475.267,1546.048,1478.154z"/>
				<path style="fill:#FA0C44;" d="M1633.101,1405.598c0,2.887,2.34,5.224,5.226,5.224s5.225-2.338,5.225-5.224
					c0-2.887-2.339-5.225-5.225-5.225S1633.101,1402.711,1633.101,1405.598z"/>
				<path style="fill:#FA0C44;" d="M1532.729,1544.456c0,2.886,2.339,5.226,5.225,5.226s5.226-2.34,5.226-5.226
					s-2.34-5.225-5.226-5.225S1532.729,1541.57,1532.729,1544.456z"/>
				<path style="fill:#FA0C44;" d="M1591.182,1306.549c0,2.887,2.34,5.225,5.226,5.225s5.225-2.338,5.225-5.225
					c0-2.886-2.339-5.225-5.225-5.225S1591.182,1303.663,1591.182,1306.549z"/>
				<path style="fill:#FA0C44;" d="M1538.763,1518.184c0,3.537,2.866,6.403,6.403,6.403c3.535,0,6.402-2.866,6.402-6.403
					c0-3.535-2.867-6.403-6.402-6.403C1541.629,1511.781,1538.763,1514.649,1538.763,1518.184z"/>
				<path style="fill:#FA0C44;" d="M1226.313,1607.152c4.2,4.2,11.01,4.2,15.21,0c4.2-4.199,4.2-11.01,0-15.211
					c-4.2-4.199-11.01-4.199-15.21,0C1222.112,1596.142,1222.112,1602.953,1226.313,1607.152z"/>
				<path style="fill:#FA0C44;" d="M1143.116,1663.812c5.625,5.624,14.745,5.624,20.37,0c5.625-5.625,5.625-14.745,0-20.37
					s-14.745-5.625-20.37,0S1137.491,1658.187,1143.116,1663.812z"/>
				<circle style="fill:#FA0C44;" cx="1176.97" cy="1623.831" r="8.758"/>
				<path style="fill:#FA0C44;" d="M1280.072,1599.432c0,4.837,3.921,8.758,8.759,8.758c4.837,0,8.758-3.921,8.758-8.758
					s-3.921-8.757-8.758-8.757C1283.993,1590.675,1280.072,1594.595,1280.072,1599.432z"/>
				<path style="fill:#FA0C44;" d="M1185.506,1646.938c0,2.886,2.339,5.225,5.225,5.225c2.885,0,5.225-2.339,5.225-5.225
					c0-2.887-2.34-5.226-5.225-5.226C1187.845,1641.712,1185.506,1644.051,1185.506,1646.938z"/>
				<path style="fill:#FA0C44;" d="M1271.146,1619.243c0,2.887,2.34,5.225,5.225,5.225c2.887,0,5.226-2.338,5.226-5.225
					c0-2.885-2.339-5.224-5.226-5.224C1273.486,1614.019,1271.146,1616.358,1271.146,1619.243z"/>
				<circle style="fill:#FA0C44;" cx="1197.942" cy="1620.666" r="6.403"/>
			</g>
			<path style="fill:#DE623C;" d="M1396.363,1385.013c10.613-38.962,9.341-65.67,39.229-98.103
				c25.494-27.663,98.382-39.007,129.315-7.395c10.629,10.861,13.301,25.446-2.13,30.287c-10.703,3.358-44.127,0.925-70.588,23.53
				c-21.456,18.328-18.238,38.734-15.898,66.771c2.992,35.842-61.551,42.345-61.551,42.345L1396.363,1385.013z"/>
			<path style="fill:#FA7C6C;" d="M1255.434,1392.489c21.924-1.238,51.078,5.188,61.95,19.95
				c10.871,14.762-17.664,12.555-37.572,5.733c-19.91-6.821-32.363,1.285-56.23,8.51
				C1199.715,1433.905,1195.625,1395.868,1255.434,1392.489z"/>
			<g>
				<path style="fill:#E01947;" d="M1280.388,1412.609c0.383,5.923,5.495,10.414,11.418,10.03
					c5.923-0.385,10.413-5.496,10.029-11.42c-0.384-5.921-5.496-10.412-11.418-10.028
					C1284.494,1401.574,1280.004,1406.688,1280.388,1412.609z"/>
				<path style="fill:#E01947;" d="M1209.751,1416.884c0.333,5.141,4.769,9.036,9.907,8.703c5.14-0.333,9.036-4.769,8.703-9.908
					c-0.333-5.139-4.77-9.035-9.908-8.703C1213.314,1407.309,1209.418,1411.745,1209.751,1416.884z"/>
				<path style="fill:#E01947;" d="M1256.028,1401.662c2.696,2.369,6.804,2.104,9.173-0.594s2.104-6.805-0.594-9.173
					c-2.697-2.37-6.806-2.103-9.174,0.594C1253.064,1395.188,1253.33,1399.294,1256.028,1401.662z"/>
				<path style="fill:#E01947;" d="M1317.978,1421.613c2.697,2.37,6.804,2.104,9.173-0.594c2.37-2.698,2.104-6.805-0.594-9.175
					c-2.697-2.368-6.805-2.104-9.173,0.595C1315.015,1415.137,1315.279,1419.245,1317.978,1421.613z"/>
				<path style="fill:#E01947;" d="M1242.521,1407.732c1.957,1.721,4.938,1.526,6.656-0.43c1.72-1.958,1.526-4.938-0.432-6.658
					c-1.956-1.718-4.937-1.525-6.655,0.433C1240.37,1403.034,1240.563,1406.014,1242.521,1407.732z"/>
				<path style="fill:#E01947;" d="M1209.364,1401.642c1.956,1.72,4.938,1.527,6.655-0.431c1.72-1.956,1.527-4.938-0.431-6.656
					c-1.957-1.719-4.938-1.526-6.657,0.431C1207.213,1396.944,1207.406,1399.925,1209.364,1401.642z"/>
			</g>
			<path style="fill:#FA7C6C;" d="M1164.176,1215.569c17.592-10.996,51.23-8.094,44.653,22.222
				c-6.578,30.313-33.389,23.445-36.688,42.137c-3.299,18.693,5.954,35.273-8.096,49.845c-14.048,14.572-28.346-22.102-38.863-1.838
				c-10.518,20.264-35.043-12.211-23.479-31.235C1114.701,1275.315,1164.176,1215.569,1164.176,1215.569z"/>
			<g>
				<path style="fill:#E01947;" d="M1176.407,1235.799c0,6.489,5.26,11.749,11.748,11.749c6.489,0,11.749-5.26,11.749-11.749
					c0-6.487-5.26-11.748-11.749-11.748C1181.667,1224.051,1176.407,1229.312,1176.407,1235.799z"/>
				<path style="fill:#E01947;" d="M1152.299,1318.024c0,6.488,5.26,11.748,11.747,11.748c6.489,0,11.75-5.26,11.75-11.748
					s-5.261-11.748-11.75-11.748C1157.559,1306.276,1152.299,1311.536,1152.299,1318.024z"/>
				<path style="fill:#E01947;" d="M1184.916,1261.405c0,4.41,3.575,7.983,7.983,7.983c4.409,0,7.984-3.573,7.984-7.983
					c0-4.41-3.575-7.983-7.984-7.983C1188.491,1253.422,1184.916,1256.995,1184.916,1261.405z"/>
				<path style="fill:#E01947;" d="M1138.22,1271.811c0,4.408,3.575,7.983,7.984,7.983c4.408,0,7.983-3.575,7.983-7.983
					c0-4.409-3.575-7.983-7.983-7.983C1141.795,1263.827,1138.22,1267.401,1138.22,1271.811z"/>
				<path style="fill:#E01947;" d="M1157,1260.898c0,2.868,2.324,5.192,5.191,5.192c2.868,0,5.192-2.324,5.192-5.192
					c0-2.867-2.324-5.192-5.192-5.192C1159.324,1255.706,1157,1258.031,1157,1260.898z"/>
				<path style="fill:#E01947;" d="M1161.438,1342.173c0,2.342,1.899,4.241,4.242,4.241c2.342,0,4.241-1.899,4.241-4.241
					c0-2.344-1.899-4.241-4.241-4.241C1163.338,1337.932,1161.438,1339.829,1161.438,1342.173z"/>
				<path style="fill:#E01947;" d="M1117.789,1319.841c0,2.342,1.897,4.241,4.241,4.241c2.343,0,4.241-1.899,4.241-4.241
					c0-2.343-1.898-4.242-4.241-4.242C1119.687,1315.599,1117.789,1317.498,1117.789,1319.841z"/>
				<path style="fill:#E01947;" d="M1132.637,1314.953c0,2.867,2.325,5.192,5.192,5.192c2.868,0,5.191-2.325,5.191-5.192
					s-2.323-5.191-5.191-5.191C1134.962,1309.762,1132.637,1312.086,1132.637,1314.953z"/>
				<path style="fill:#E01947;" d="M1129.716,1338.365c0,4.866,3.945,8.81,8.811,8.81c4.865,0,8.81-3.944,8.81-8.81
					c0-4.865-3.944-8.81-8.81-8.81C1133.661,1329.556,1129.716,1333.5,1129.716,1338.365z"/>
			</g>
			<path style="fill:#FA897A;" d="M1525.606,781.023c2.285,9.26,19.151,13.061,37.671,8.489
				c18.519-4.571,31.679-15.783,29.394-25.043c-2.286-9.26-19.151-13.061-37.671-8.49
				C1536.48,760.552,1523.32,771.764,1525.606,781.023z"/>
			<path style="fill:#FA897A;" d="M1327.922,823.273c2.285,9.26,19.151,13.061,37.671,8.489
				c18.519-4.57,31.679-15.783,29.394-25.042c-2.286-9.261-19.151-13.061-37.671-8.49
				C1338.796,802.802,1325.637,814.014,1327.922,823.273z"/>
		</g>
	</g>
	<g>
		<path style="fill:#95A6DB;" d="M2034.599,389.999c9.375-10.729,41.287-22.138,58.797-5.458c9.073,9.683-0.209,30.007,3.927,41.347
			c4.136,11.34,27.089,9.927,40.405,7.035c13.316-2.893,27.252,9.2,22.973,33.889c-3.283,18.947-3.159,26.429,10.643,31.569
			c13.803,5.141,42.364,2.989,34.297,30.667c-5.736,13.692-10.884,22.37-11.932,14.881c-1.047-7.489,12.441-18.34,0.914-27.054
			c-11.527-8.715-30.663-2.29-40.693-14.072c-16.79-19.722,5.578-45.272-6.569-55.339c-12.146-10.068-45.839,6.694-55.661-9.514
			c-9.82-16.207,7.324-36.729-7.884-47.432C2068.607,379.814,2040.992,396.944,2034.599,389.999z"/>
	</g>
	<g>
		<path style="fill:#95A6DB;" d="M870.755,447.952c1.204-1.653,2.518-3.198,3.917-4.689c0.61-0.651-0.516,0.511-0.512,0.508
			c0.194-0.181,0.38-0.374,0.571-0.557c0.317-0.305,0.641-0.603,0.968-0.896c0.324-0.289,0.652-0.572,0.985-0.851
			c0.479-0.399,2.077-1.473,0.085-0.109c0.732-0.5,1.43-1.043,2.174-1.526c0.35-0.228,0.706-0.444,1.06-0.663
			c0.436-0.271,1.158-0.557-0.693,0.392c0.257-0.13,0.504-0.283,0.758-0.42c0.757-0.409,1.527-0.791,2.312-1.146
			c0.478-0.217,1.958-0.751-0.065,0.001c0.456-0.17,0.905-0.357,1.363-0.521c0.761-0.274,1.53-0.523,2.307-0.748
			c0.388-0.113,0.778-0.214,1.168-0.318c0.399-0.108,1.266-0.189-0.373,0.084c0.238-0.039,0.474-0.105,0.71-0.155
			c1.742-0.366,3.51-0.614,5.285-0.753c0.405-0.031,0.812-0.054,1.218-0.078c1.227-0.071-0.914,0,0.316-0.01
			c0.902-0.008,1.804-0.003,2.705,0.035c1.781,0.074,3.558,0.249,5.319,0.515c1.791,0.27,3.563,0.64,5.319,1.077
			c0.061,0.016,0.876,0.232,0.278,0.069c-0.599-0.16,0.218,0.064,0.277,0.08c0.41,0.119,0.82,0.236,1.228,0.362
			c0.902,0.275,1.798,0.573,2.687,0.891c3.521,1.26,6.929,2.836,10.185,4.678c3.294,1.863,6.435,4,9.383,6.375
			c0.343,0.276,0.684,0.556,1.021,0.839c0.086,0.071,0.758,0.648,0.177,0.146c0.133,0.115,0.266,0.23,0.397,0.346
			c0.727,0.638,1.44,1.291,2.139,1.959c1.391,1.329,2.725,2.718,3.994,4.164c4.824,5.495,8.492,11.702,10.995,18.565
			c0.289,0.792-0.191-0.646,0.055,0.161c0.061,0.198,0.123,0.396,0.184,0.595c0.131,0.436,0.256,0.875,0.374,1.314
			c0.236,0.88,0.444,1.765,0.625,2.656c0.344,1.698,0.585,3.419,0.714,5.147c0.132,1.78,0.146,3.568,0.036,5.349
			c-0.055,0.882-0.153,1.755-0.252,2.632c0.119-1.058-0.057,0.313-0.099,0.56c-0.087,0.505-0.183,1.008-0.289,1.508
			c-0.379,1.793-0.885,3.558-1.508,5.279c-0.302,0.835-0.987,1.893-1.111,2.758c0.011-0.075,0.465-0.986,0.135-0.297
			c-0.12,0.249-0.237,0.5-0.36,0.749c-0.248,0.504-0.505,1.002-0.773,1.495c-0.931,1.724-1.941,3.426-2.951,5.103
			c-0.229,0.379-0.466,0.753-0.712,1.121c-0.147,0.218-0.31,0.43-0.45,0.652c0.805-1.278,0.496-0.666,0.248-0.353
			c-0.624,0.79-1.255,1.564-1.944,2.298c-0.97,1.033,1.043-0.958-0.022,0.031c-0.318,0.296-0.633,0.594-0.958,0.881
			c-0.325,0.288-0.656,0.568-0.993,0.842c-0.168,0.138-0.342,0.269-0.509,0.406c-0.42,0.344,1.543-1.126,0.389-0.308
			c-0.71,0.503-1.427,0.992-2.168,1.449c-0.223,0.137-0.449,0.266-0.671,0.402c1.746-1.074,1.164-0.662,0.764-0.443
			c-0.46,0.249-0.919,0.499-1.387,0.734c-0.859,0.434-1.743,0.802-2.618,1.2c-0.013,0.006,1.509-0.595,0.683-0.284
			c-0.245,0.093-0.489,0.19-0.735,0.28c-0.491,0.182-0.986,0.354-1.484,0.518c-0.829,0.271-1.666,0.518-2.511,0.739
			c-0.252,0.065-0.509,0.12-0.76,0.19c0.027-0.008,1.351-0.293,0.552-0.135c-0.511,0.101-1.018,0.218-1.529,0.313
			c-1.856,0.346-3.733,0.573-5.617,0.678c-0.169,0.01-0.338,0.015-0.507,0.025c-0.934,0.062,1.073,0,0.14-0.005
			c-0.418-0.003-0.837,0.01-1.255,0.006c-0.908-0.009-1.816-0.047-2.722-0.116c-1.67-0.13-3.334-0.364-4.971-0.722
			c-0.227-0.05-0.452-0.104-0.679-0.156c-0.086-0.02-0.835-0.208-0.209-0.047c0.571,0.148-0.651-0.191-0.85-0.253
			c-0.776-0.243-1.542-0.518-2.293-0.827c-1.362-0.562-2.681-1.24-3.908-2.059c-0.28-0.187-0.557-0.381-0.826-0.582
			c-0.147-0.109-1.011-0.81-0.619-0.477c0.393,0.334-0.424-0.397-0.553-0.524c-0.275-0.272-0.541-0.555-0.795-0.847
			c-0.879-1.007-1.62-2.133-2.176-3.35c-0.134-0.292-0.247-0.59-0.367-0.887c-0.333-0.823,0.108,0.54-0.102-0.321
			c-0.174-0.715-0.33-1.424-0.411-2.157c-0.085-0.771-0.107-1.548-0.075-2.32c0.015-0.371,0.063-0.738,0.083-1.108
			c0.031-0.611-0.028,0.188-0.042,0.266c0.052-0.309,0.098-0.617,0.157-0.926c0.159-0.813,0.368-1.615,0.618-2.405
			c0.109-0.349,1.178-2.662,1.063-2.795c0.1,0.114-0.439,0.921,0.013-0.009c0.087-0.179,0.177-0.357,0.267-0.534
			c0.258-0.506,0.527-1.005,0.809-1.499c0.634-1.116,1.323-2.2,2.052-3.258c0.135-0.196,0.272-0.39,0.409-0.584
			c0.723-1.031-0.711,0.929,0.07-0.089c0.387-0.504,0.767-1.014,1.17-1.506c0.902-1.102,1.905-2.131,2.883-3.168
			c0.86-0.913,1.732-1.813,2.612-2.708c0.93-0.945-0.976,0.965-0.038,0.04c0.173-0.171,0.345-0.342,0.518-0.513
			c0.513-0.502,1.028-1.002,1.547-1.497c1.816-1.732,3.679-3.417,5.594-5.04c0.822-0.698,1.656-1.385,2.499-2.06
			c0.411-0.327,0.823-0.654,1.239-0.976c0.369-0.286,1.363-0.98-0.339,0.256c0.248-0.18,0.49-0.368,0.737-0.552
			c1.73-1.285,3.504-2.513,5.322-3.671c0.782-0.497,1.575-0.978,2.371-1.452c0.94-0.561-1.313,0.741-0.622,0.356
			c0.196-0.108,0.39-0.222,0.586-0.331c0.462-0.259,0.928-0.512,1.396-0.761c1.566-0.831,3.165-1.603,4.796-2.3
			c0.223-0.097,0.452-0.184,0.673-0.284c-1.713,0.787-1.057,0.426-0.631,0.261c0.406-0.156,0.81-0.315,1.22-0.466
			c0.795-0.293,1.598-0.569,2.406-0.823c0.713-0.224,1.43-0.432,2.151-0.623c0.452-0.119,1.816-0.355-0.041-0.005
			c0.422-0.08,0.839-0.189,1.26-0.275c1.488-0.303,2.992-0.526,4.505-0.66c0.332-0.03,0.664-0.056,0.998-0.075
			c0.398-0.025,1.619,0.03,0.033-0.017c0.71,0.021,1.423-0.022,2.134,0c1.317,0.04,2.634,0.156,3.938,0.351
			c0.666,0.1,1.329,0.221,1.988,0.362c0.297,0.063,0.593,0.131,0.887,0.203c0.117,0.028,0.234,0.061,0.352,0.089
			c0.619,0.147-0.967-0.287-0.051-0.01c2.455,0.744,4.81,1.711,7.033,2.996c1.078,0.621,2.121,1.308,3.122,2.049
			c0.479,0.354,0.95,0.723,1.411,1.102c0.139,0.115,0.273,0.234,0.413,0.347c-0.686-0.55-0.366-0.32-0.219-0.185
			c0.268,0.244,0.541,0.48,0.806,0.727c3.992,3.718,7.115,8.298,9.462,13.208c0.614,1.284,1.176,2.593,1.689,3.92
			c0.274,0.711,0.534,1.428,0.781,2.147c0.046,0.133,0.088,0.266,0.135,0.397c0.247,0.7-0.214-0.698,0.006,0.013
			c0.125,0.404,0.254,0.809,0.374,1.215c0.895,3.006,1.565,6.077,2.039,9.177c1.012,6.62,1.129,13.369,0.51,20.034
			c-0.081,0.866-0.174,1.732-0.279,2.598c-0.025,0.206-0.053,0.413-0.078,0.621c-0.105,0.873,0.124-0.82-0.006,0.05
			c-0.075,0.5-0.145,1-0.223,1.499c-0.277,1.771-0.606,3.533-0.983,5.285c-0.797,3.696-1.813,7.346-3.033,10.925
			c-0.613,1.802-1.278,3.583-1.993,5.346c-0.362,0.895-0.738,1.783-1.126,2.667c-0.093,0.212-0.187,0.423-0.281,0.634
			c-0.146,0.327-0.628,0.935,0.019-0.035c-0.299,0.449-0.48,1.031-0.714,1.518c-1.732,3.606-3.676,7.11-5.812,10.493
			c-1.102,1.744-2.263,3.446-3.454,5.131c-0.61,0.862,0.612-0.822,0.183-0.248c-0.149,0.199-0.295,0.402-0.443,0.602
			c-0.299,0.403-0.6,0.802-0.903,1.199c-0.674,0.883-1.362,1.754-2.062,2.615c-1.102,1.357-2.461,4.439,0.406,4.659
			c2.768,0.215,6.035-1.774,7.723-3.854c10.918-13.457,18.993-29.349,22.428-46.391c2.838-14.087,2.746-28.784-1.813-42.495
			c-3.586-10.786-10.486-20.995-20.96-26.072c-12.487-6.053-26.892-3.234-38.91,2.558c-8.71,4.197-16.646,10.024-23.811,16.479
			c-4.357,3.925-8.758,8.078-12.487,12.615c-3.43,4.172-6.487,8.917-8.232,14.059c-2.168,6.39-1.55,13.666,3.628,18.422
			c5.255,4.826,12.556,6.722,19.557,6.916c8.711,0.242,17.646-1.776,25.303-5.976c4.61-2.528,8.801-5.638,12.356-9.527
			c2.947-3.225,5.221-7.127,7.266-10.969c3.885-7.297,5.912-15.485,5.298-23.771c-0.563-7.579-3.259-15.01-7.181-21.485
			c-8.076-13.335-21.627-23.818-36.414-28.655c-7.616-2.49-15.616-3.594-23.605-2.65c-9.047,1.071-17.481,4.899-24.581,10.541
			c-3.356,2.665-6.362,5.835-8.885,9.296c-0.601,0.824-1.521,1.952-1.4,3.086c0.102,0.949,0.899,1.503,1.808,1.573
			C865.688,452.013,869.211,450.071,870.755,447.952L870.755,447.952z"/>
	</g>
	<g>
		<path style="fill:#95A6DB;" d="M2602.646,1014.822c-9.598,41.839-51.295,67.975-93.133,58.377
			c-41.838-9.597-67.975-51.294-58.377-93.131c9.598-41.839,51.293-67.975,93.133-58.377
			C2586.107,931.288,2612.242,972.985,2602.646,1014.822z"/>
		<path style="fill:#95A6DB;" d="M2550.287,862.188c-3.699,16.126-19.77,26.2-35.896,22.501
			c-16.127-3.699-26.201-19.771-22.502-35.897c3.699-16.127,19.771-26.201,35.898-22.502
			C2543.912,829.988,2553.988,846.06,2550.287,862.188z"/>
		<path style="fill:#95A6DB;" d="M2686.695,931.083c-3.699,16.127-19.771,26.201-35.898,22.502s-26.201-19.771-22.502-35.898
			c3.699-16.127,19.771-26.2,35.898-22.501C2680.32,898.885,2690.395,914.957,2686.695,931.083z"/>
		<path style="fill:#95A6DB;" d="M2703.154,1107.483c-3.699,16.126-19.771,26.2-35.898,22.501
			c-16.127-3.699-26.201-19.771-22.502-35.897c3.699-16.127,19.771-26.201,35.897-22.502
			C2696.779,1075.283,2706.854,1091.356,2703.154,1107.483z"/>
		<path style="fill:#95A6DB;" d="M2505.572,1131.282c-3.699,16.126-19.771,26.201-35.898,22.501
			c-16.127-3.698-26.201-19.771-22.502-35.896c3.699-16.127,19.771-26.201,35.898-22.502
			C2499.197,1099.084,2509.271,1115.155,2505.572,1131.282z"/>
		<path style="fill:#95A6DB;" d="M2389.511,965.878c-3.699,16.127-19.771,26.201-35.898,22.502
			c-16.127-3.699-26.201-19.772-22.502-35.898c3.699-16.126,19.772-26.201,35.898-22.502
			C2383.136,933.68,2393.21,949.752,2389.511,965.878z"/>
		<path style="fill:#95A6DB;" d="M2527.367,969.997L2527.367,969.997c-3.73,0.187-6.906-2.685-7.094-6.416l-5.629-112
			c-0.188-3.731,2.686-6.907,6.416-7.095l0,0c3.73-0.188,6.906,2.685,7.094,6.416l5.629,112
			C2533.971,966.633,2531.098,969.81,2527.367,969.997z"/>
		<path style="fill:#95A6DB;" d="M2476.23,1124.647L2476.23,1124.647c-3.494-1.323-5.252-5.227-3.93-8.721l39.73-104.867
			c1.324-3.492,5.229-5.252,8.723-3.928l0,0c3.492,1.323,5.25,5.228,3.928,8.721l-39.73,104.867
			C2483.627,1124.213,2479.723,1125.972,2476.23,1124.647z"/>
		<path style="fill:#95A6DB;" d="M2547.531,986.727L2547.531,986.727c-1.793-3.277-0.588-7.387,2.688-9.18l98.385-53.815
			c3.277-1.793,7.387-0.59,9.18,2.688l0,0c1.793,3.276,0.59,7.387-2.688,9.18l-98.385,53.816
			C2553.434,991.208,2549.324,990.005,2547.531,986.727z"/>
		<path style="fill:#95A6DB;" d="M2659.422,1085.888L2659.422,1085.888c-2.449,2.82-6.721,3.119-9.541,0.668l-84.643-73.56
			c-2.82-2.45-3.119-6.722-0.671-9.541l0,0c2.452-2.819,6.724-3.119,9.544-0.669l84.643,73.561
			C2661.574,1078.796,2661.873,1083.068,2659.422,1085.888z"/>
		<path style="fill:#95A6DB;" d="M2483.307,982.566L2483.307,982.566c-0.623,3.683-4.113,6.163-7.797,5.539l-110.569-18.72
			c-3.682-0.624-6.162-4.115-5.54-7.798l0,0c0.625-3.683,4.116-6.162,7.799-5.539l110.568,18.72
			C2481.451,975.393,2483.932,978.884,2483.307,982.566z"/>
	</g>
	<g>
		<path style="fill:#FFFFFF;" d="M2649.848,1798.307c-23.936,3.311-46.023-13.408-49.334-37.343
			c-3.313-23.935,13.406-46.023,37.342-49.335c23.936-3.313,46.023,13.406,49.334,37.341
			C2690.502,1772.905,2673.783,1794.994,2649.848,1798.307z"/>
		<path style="fill:#FFFFFF;" d="M2737.843,1715.34c-9.769,5.149-21.862,1.406-27.013-8.362c-5.15-9.769-1.406-21.864,8.361-27.013
			c9.77-5.15,21.863-1.406,27.014,8.36C2751.355,1698.096,2747.611,1710.189,2737.843,1715.34z"/>
		<path style="fill:#FFFFFF;" d="M2725.072,1859.432c-4.107,10.25-15.747,15.231-25.998,11.125
			c-10.252-4.108-15.232-15.746-11.125-25.998c4.105-10.25,15.746-15.233,25.997-11.125
			C2724.197,1837.541,2729.178,1849.18,2725.072,1859.432z"/>
		<path style="fill:#FFFFFF;" d="M2550.58,1783.861c-10.938,1.514-21.033-6.127-22.547-17.066
			c-1.514-10.938,6.127-21.033,17.066-22.547c10.939-1.514,21.033,6.127,22.547,17.066
			C2569.16,1772.253,2561.52,1782.348,2550.58,1783.861z"/>
		<path style="fill:#FFFFFF;" d="M2626.281,1672.246c-10.939,1.514-21.035-6.127-22.549-17.067
			c-1.514-10.94,6.127-21.033,17.066-22.547c10.939-1.514,21.033,6.127,22.549,17.064
			C2644.861,1660.638,2637.219,1670.732,2626.281,1672.246z"/>
		<path style="fill:#FFFFFF;" d="M2673.324,1750.686L2673.324,1750.686c-1.719-1.806-1.648-4.662,0.158-6.383l54.207-51.611
			c1.805-1.719,4.662-1.649,6.382,0.156l0,0c1.719,1.806,1.649,4.663-0.156,6.383l-54.208,51.611
			C2677.901,1752.561,2675.045,1752.491,2673.324,1750.686z"/>
		<path style="fill:#FFFFFF;" d="M2547.768,1763.98L2547.768,1763.98c-0.002-2.492,2.018-4.516,4.509-4.517l74.849-0.063
			c2.494-0.002,4.518,2.017,4.52,4.511l0,0c0.002,2.493-2.018,4.517-4.512,4.518l-74.848,0.062
			C2549.791,1768.494,2547.77,1766.475,2547.768,1763.98z"/>
		<path style="fill:#FFFFFF;" d="M2698.469,1840.67L2698.469,1840.67c-1.908,1.605-4.756,1.361-6.361-0.546l-48.207-57.259
			c-1.605-1.906-1.361-4.754,0.547-6.359l0,0c1.906-1.605,4.754-1.361,6.359,0.546l48.207,57.257
			C2700.619,1836.217,2700.375,1839.064,2698.469,1840.67z"/>
		<path style="fill:#FFFFFF;" d="M2638.098,1734.725L2638.098,1734.725c-2.447,0.484-4.822-1.107-5.305-3.552l-14.523-73.427
			c-0.484-2.445,1.107-4.82,3.553-5.305l0,0c2.445-0.483,4.82,1.107,5.305,3.554l14.521,73.426
			C2642.133,1731.866,2640.543,1734.241,2638.098,1734.725z"/>
	</g>
	<g>
		<path style="fill:#FFFFFF;" d="M2619.717,446.691c-19.008-28.876-11.006-67.691,17.869-86.697
			c28.875-19.007,67.69-11.007,86.697,17.868c19.007,28.876,11.006,67.691-17.869,86.698
			C2677.539,483.566,2638.723,475.566,2619.717,446.691z"/>
		<path style="fill:#FFFFFF;" d="M2781.019,509.285c-12.663-9.447-15.271-27.371-5.823-40.035
			c9.448-12.662,27.372-15.269,40.035-5.821c12.663,9.446,15.27,27.371,5.822,40.034
			C2811.605,516.126,2793.682,518.733,2781.019,509.285z"/>
		<path style="fill:#FFFFFF;" d="M2587.059,581.459c-15.766,1.004-29.361-10.965-30.365-26.731
			c-1.004-15.768,10.963-29.363,26.73-30.366c15.768-1.004,29.361,10.963,30.365,26.73
			C2614.795,566.859,2602.826,580.455,2587.059,581.459z"/>
		<path style="fill:#FFFFFF;" d="M2577.287,309.595c-8.688-13.197-5.031-30.936,8.166-39.622
			c13.197-8.686,30.938-5.031,39.623,8.166c8.686,13.197,5.029,30.937-8.166,39.623
			C2603.713,326.448,2585.973,322.791,2577.287,309.595z"/>
		<path style="fill:#FFFFFF;" d="M2768.025,338.681c-8.687-13.197-5.03-30.936,8.166-39.623c13.197-8.686,30.938-5.03,39.623,8.167
			c8.687,13.196,5.03,30.935-8.166,39.623C2794.451,355.533,2776.711,351.877,2768.025,338.681z"/>
		<path style="fill:#FFFFFF;" d="M2695.666,447.709L2695.666,447.709c1.274-3.332,5.008-5,8.34-3.725l100.016,38.251
			c3.332,1.273,5,5.007,3.726,8.338l0,0c-1.274,3.332-5.008,5-8.339,3.727l-100.018-38.252
			C2696.061,454.773,2694.393,451.04,2695.666,447.709z"/>
		<path style="fill:#FFFFFF;" d="M2601.23,293.727L2601.23,293.727c3.219-1.537,7.074-0.173,8.611,3.046l46.139,96.631
			c1.537,3.219,0.174,7.074-3.045,8.61l0,0c-3.219,1.537-7.074,0.174-8.611-3.045l-46.139-96.631
			C2596.648,299.119,2598.012,295.264,2601.23,293.727z"/>
		<path style="fill:#FFFFFF;" d="M2594.92,535.555L2594.92,535.555c-3.248-1.476-4.684-5.305-3.209-8.551l44.287-97.495
			c1.475-3.247,5.303-4.685,8.551-3.209l0,0c3.246,1.476,4.684,5.304,3.209,8.551l-44.287,97.494
			C2601.996,535.593,2598.168,537.029,2594.92,535.555z"/>
		<path style="fill:#FFFFFF;" d="M2694.602,392.389L2694.602,392.389c-2.129-2.861-1.537-6.907,1.324-9.037l85.896-63.94
			c2.861-2.13,6.907-1.537,9.036,1.324l0,0c2.131,2.861,1.537,6.906-1.323,9.037l-85.896,63.94
			C2700.776,395.843,2696.731,395.25,2694.602,392.389z"/>
	</g>
	<g>
		<path style="fill:#95A6DB;" d="M298.41,533.17c38.732-18.503,85.131-2.104,103.633,36.628
			c18.503,38.732,2.104,85.131-36.628,103.633c-38.733,18.503-85.131,2.104-103.633-36.628
			C243.278,598.07,259.679,551.672,298.41,533.17z"/>
		<path style="fill:#95A6DB;" d="M211.44,669.093c14.93-7.131,32.814-0.81,39.945,14.119c7.133,14.929,0.811,32.813-14.118,39.945
			c-14.929,7.133-32.814,0.81-39.945-14.118C190.189,694.109,196.511,676.225,211.44,669.093z"/>
		<path style="fill:#95A6DB;" d="M180.564,519.426c14.93-7.131,32.813-0.811,39.946,14.118c7.131,14.93,0.81,32.815-14.12,39.946
			c-14.929,7.133-32.813,0.812-39.945-14.118C159.313,544.442,165.634,526.559,180.564,519.426z"/>
		<path style="fill:#95A6DB;" d="M308.468,396.837c14.93-7.133,32.814-0.812,39.946,14.118c7.131,14.93,0.811,32.815-14.119,39.946
			c-14.93,7.131-32.814,0.81-39.946-14.119C287.217,421.853,293.538,403.968,308.468,396.837z"/>
		<path style="fill:#95A6DB;" d="M449.98,536.765c14.929-7.133,32.814-0.811,39.945,14.118c7.132,14.93,0.81,32.813-14.119,39.945
			c-14.929,7.132-32.814,0.811-39.945-14.118C428.729,561.78,435.051,543.896,449.98,536.765z"/>
		<path style="fill:#95A6DB;" d="M392.627,730.515c14.929-7.132,32.813-0.811,39.945,14.119c7.132,14.93,0.811,32.813-14.118,39.945
			c-14.93,7.132-32.814,0.812-39.946-14.118C371.376,755.531,377.697,737.647,392.627,730.515z"/>
		<path style="fill:#95A6DB;" d="M310.121,619.997L310.121,619.997c2.468,2.806,2.193,7.079-0.611,9.546l-84.21,74.059
			c-2.805,2.467-7.078,2.192-9.545-0.613l0,0c-2.467-2.804-2.192-7.077,0.612-9.544l84.209-74.059
			C303.381,616.918,307.654,617.193,310.121,619.997z"/>
		<path style="fill:#95A6DB;" d="M463.031,563.867L463.031,563.867c1.137,3.56-0.828,7.364-4.386,8.5L351.815,606.47
			c-3.559,1.136-7.364-0.828-8.5-4.387l0,0c-1.136-3.558,0.828-7.363,4.387-8.5l106.83-34.102
			C458.09,558.346,461.896,560.309,463.031,563.867z"/>
		<path style="fill:#95A6DB;" d="M310.684,593.802L310.684,593.802c-1.452,3.441-5.419,5.056-8.86,3.604l-103.328-43.578
			c-3.442-1.451-5.056-5.419-3.604-8.859l0,0c1.451-3.442,5.418-5.056,8.859-3.604l103.329,43.578
			C310.522,586.393,312.135,590.36,310.684,593.802z"/>
		<path style="fill:#95A6DB;" d="M324.98,439.842L324.98,439.842c3.728-0.236,6.942,2.594,7.179,6.321l7.114,111.916
			c0.236,3.727-2.593,6.941-6.321,7.178l0,0c-3.728,0.238-6.941-2.593-7.179-6.32l-7.113-111.915
			C318.424,443.293,321.252,440.079,324.98,439.842z"/>
		<path style="fill:#95A6DB;" d="M347.365,646.685L347.365,646.685c3.271-1.803,7.385-0.611,9.186,2.661l54.102,98.227
			c1.802,3.273,0.61,7.386-2.661,9.188l0,0c-3.272,1.803-7.386,0.611-9.188-2.661l-54.102-98.229
			C342.901,652.6,344.093,648.486,347.365,646.685z"/>
	</g>
	<g>
		<path style="fill:#95A6DB;" d="M530.818,1736.963c17.8,28.251,10.035,65.816-17.342,83.901
			c-27.378,18.089-64.001,9.849-81.801-18.401c-17.799-28.251-10.034-65.815,17.343-83.902
			C476.397,1700.473,513.019,1708.713,530.818,1736.963z"/>
		<path style="fill:#95A6DB;" d="M419.668,1682.637c6.86,10.89,3.867,25.369-6.686,32.341c-10.552,6.971-24.669,3.796-31.53-7.093
			c-6.86-10.891-3.867-25.369,6.685-32.342C398.69,1668.571,412.807,1671.748,419.668,1682.637z"/>
		<path style="fill:#95A6DB;" d="M529.489,1644.246c6.861,10.89,3.868,25.368-6.684,32.341c-10.554,6.972-24.67,3.796-31.531-7.093
			c-6.86-10.891-3.867-25.37,6.686-32.342C508.513,1630.182,522.629,1633.357,529.489,1644.246z"/>
		<path style="fill:#95A6DB;" d="M634.646,1731.604c6.86,10.89,3.868,25.369-6.685,32.342c-10.553,6.971-24.67,3.794-31.53-7.094
			c-6.861-10.891-3.868-25.369,6.685-32.342C613.668,1717.538,627.784,1720.715,634.646,1731.604z"/>
		<path style="fill:#95A6DB;" d="M543.148,1854.853c6.861,10.889,3.868,25.368-6.685,32.341c-10.553,6.972-24.669,3.795-31.53-7.094
			c-6.86-10.89-3.868-25.369,6.685-32.341C522.171,1840.787,536.287,1843.963,543.148,1854.853z"/>
		<path style="fill:#95A6DB;" d="M391.322,1829.074c6.86,10.891,3.867,25.369-6.686,32.342c-10.554,6.972-24.67,3.795-31.53-7.094
			c-6.861-10.89-3.868-25.369,6.684-32.342C370.344,1815.01,384.461,1818.186,391.322,1829.074z"/>
		<path style="fill:#95A6DB;" d="M466.49,1754.426L466.49,1754.426c-1.87,2.184-5.121,2.383-7.26,0.446l-64.215-58.156
			c-2.139-1.937-2.356-5.277-0.485-7.462l0,0c1.871-2.184,5.121-2.383,7.26-0.445l64.215,58.155
			C468.144,1748.901,468.361,1752.241,466.49,1754.426z"/>
		<path style="fill:#95A6DB;" d="M524.001,1867.59L524.001,1867.59c-2.571,1.225-5.637,0.067-6.847-2.581l-36.323-79.556
			c-1.209-2.65-0.105-5.791,2.466-7.016l0,0c2.571-1.225,5.636-0.068,6.846,2.582l36.323,79.554
			C527.676,1863.225,526.572,1866.364,524.001,1867.59z"/>
		<path style="fill:#95A6DB;" d="M486.305,1752.332L486.305,1752.332c-2.74-0.793-4.351-3.713-3.598-6.523l22.615-84.337
			c0.753-2.809,3.585-4.443,6.325-3.651l0,0c2.739,0.793,4.35,3.715,3.597,6.524l-22.614,84.338
			C491.876,1751.491,489.045,1753.127,486.305,1752.332z"/>
		<path style="fill:#95A6DB;" d="M603.848,1748.561L603.848,1748.561c0.548,2.868-1.268,5.634-4.055,6.178l-83.707,16.318
			c-2.788,0.543-5.493-1.342-6.042-4.209l0,0c-0.548-2.868,1.267-5.634,4.056-6.178l83.706-16.318
			C600.594,1743.809,603.299,1745.693,603.848,1748.561z"/>
		<path style="fill:#95A6DB;" d="M450.059,1785.883L450.059,1785.883c1.685,2.363,1.193,5.669-1.096,7.383l-68.72,51.435
			c-2.289,1.712-5.51,1.187-7.193-1.178l0,0c-1.684-2.363-1.193-5.668,1.096-7.381l68.72-51.435
			C445.154,1782.993,448.375,1783.521,450.059,1785.883z"/>
	</g>
	<g>
		<path style="fill:#95A6DB;" d="M1938.641,183.841c25.107,9.155,38.601,36.731,30.14,61.592
			c-8.462,24.862-35.674,37.594-60.781,28.438c-25.107-9.155-38.602-36.731-30.14-61.593S1913.534,174.686,1938.641,183.841z"/>
		<path style="fill:#95A6DB;" d="M1841.292,178.882c9.545,6.801,12.029,20.034,5.55,29.556c-6.48,9.521-19.47,11.727-29.015,4.926
			c-9.545-6.801-12.029-20.034-5.552-29.557C1818.757,174.285,1831.747,172.08,1841.292,178.882z"/>
		<path style="fill:#95A6DB;" d="M2007.697,112.769c12.092,4.41,18.591,17.69,14.515,29.664
			c-4.074,11.973-17.18,18.105-29.271,13.696c-12.092-4.41-18.592-17.689-14.516-29.664
			C1982.499,114.491,1995.605,108.359,2007.697,112.769z"/>
		<path style="fill:#95A6DB;" d="M2003.046,209.075c-3.014-12.512,4.457-25.271,16.686-28.498
			c12.23-3.227,24.586,4.301,27.601,16.813c3.014,12.513-4.456,25.272-16.687,28.5
			C2018.417,229.116,2006.06,221.59,2003.046,209.075z"/>
		<path style="fill:#95A6DB;" d="M1905.558,223.169L1905.558,223.169c-0.821,2.486-3.49,3.778-5.961,2.886l-74.205-26.789
			c-2.472-0.893-3.811-3.632-2.988-6.118l0,0c0.82-2.486,3.49-3.779,5.961-2.886l74.204,26.789
			C1905.04,217.943,1906.379,220.682,1905.558,223.169z"/>
		<path style="fill:#95A6DB;" d="M1993.728,145.032L1993.728,145.032c2.19,1.933,2.448,5.23,0.576,7.367l-56.191,64.152
			c-1.872,2.137-5.164,2.303-7.354,0.371l0,0c-2.191-1.932-2.448-5.23-0.576-7.366l56.191-64.152
			C1988.245,143.267,1991.538,143.102,1993.728,145.032z"/>
		<path style="fill:#95A6DB;" d="M1933.573,231.192L1933.573,231.192c-0.839-2.778,0.684-5.752,3.401-6.643l81.57-26.73
			c2.717-0.892,5.599,0.64,6.438,3.417l0,0c0.838,2.778-0.684,5.752-3.401,6.643l-81.568,26.731
			C1937.294,235.501,1934.412,233.97,1933.573,231.192z"/>
	</g>
	<g>
		<path style="fill:#FFFFFF;" d="M180.753,1636.307c-15.631,24.826-48.345,32.93-73.066,18.099
			c-24.723-14.83-32.093-46.977-16.46-71.803c15.63-24.826,48.344-32.93,73.066-18.1
			C189.015,1579.333,196.385,1611.48,180.753,1636.307z"/>
		<path style="fill:#FFFFFF;" d="M208.59,1532.985c-9.507,8.67-24.281,8.275-33.001-0.881c-8.721-9.155-8.082-23.604,1.424-32.275
			c9.507-8.668,24.281-8.275,33.001,0.881C218.733,1509.863,218.096,1524.315,208.59,1532.985z"/>
		<path style="fill:#FFFFFF;" d="M241.051,1726.85c-7.528,11.957-23.284,15.859-35.189,8.717
			c-11.907-7.142-15.456-22.624-7.928-34.58c7.528-11.957,23.283-15.859,35.189-8.717
			C245.029,1699.412,248.579,1714.895,241.051,1726.85z"/>
		<path style="fill:#FFFFFF;" d="M138.776,1699.586c14.125-0.341,26.09,10.627,26.724,24.496
			c0.635,13.871-10.301,25.391-24.426,25.73c-14.125,0.341-26.09-10.627-26.725-24.497
			C113.716,1711.445,124.651,1699.926,138.776,1699.586z"/>
		<path style="fill:#FFFFFF;" d="M146.2,1591.708L146.2,1591.708c-2.479-1.455-3.248-4.619-1.719-7.064l45.91-73.436
			c1.529-2.445,4.778-3.248,7.257-1.793l0,0c2.479,1.457,3.248,4.618,1.719,7.066l-45.91,73.434
			C151.928,1592.362,148.679,1593.165,146.2,1591.708z"/>
		<path style="fill:#FFFFFF;" d="M209.658,1704.398L209.658,1704.398c-2.579,1.902-6.178,1.416-8.038-1.086l-55.848-75.139
			c-1.86-2.502-1.277-6.074,1.302-7.977l0,0c2.58-1.903,6.179-1.418,8.039,1.085l55.848,75.139
			C212.821,1698.924,212.238,1702.495,209.658,1704.398z"/>
		<path style="fill:#FFFFFF;" d="M131.11,1619.918L131.11,1619.918c3.176-0.258,6.015,2.065,6.342,5.186l9.821,93.717
			c0.326,3.121-1.982,5.86-5.157,6.118l0,0c-3.175,0.257-6.015-2.064-6.342-5.186l-9.82-93.716
			C125.627,1622.914,127.936,1620.176,131.11,1619.918z"/>
	</g>
	<g>
		<path style="fill:#95A6DB;" d="M407.017,1134.017c-21.646,15.674-52.048,11.41-67.906-9.524
			c-15.858-20.932-11.167-50.608,10.478-66.282c21.646-15.673,52.048-11.409,67.906,9.523
			C433.353,1088.667,428.662,1118.343,407.017,1134.017z"/>
		<path style="fill:#95A6DB;" d="M465.644,1056.142c-10.98,4.098-23.335-1.252-27.596-11.953
			c-4.26-10.701,1.188-22.697,12.168-26.797c10.98-4.099,23.335,1.253,27.595,11.953
			C482.071,1040.046,476.623,1052.043,465.644,1056.142z"/>
		<path style="fill:#95A6DB;" d="M427.225,1231.029c-10.424,7.548-25.066,5.495-32.704-4.587
			c-7.637-10.081-5.378-24.373,5.047-31.921c10.424-7.548,25.067-5.495,32.704,4.585
			C439.909,1209.188,437.649,1223.481,427.225,1231.029z"/>
		<path style="fill:#95A6DB;" d="M354.857,1027.071c-12.397,3.459-25.415-3.551-29.077-15.656
			c-3.661-12.107,3.42-24.726,15.817-28.184c12.396-3.46,25.415,3.551,29.077,15.656
			C374.335,1010.995,367.254,1023.612,354.857,1027.071z"/>
		<path style="fill:#95A6DB;" d="M392.961,1084.583L392.961,1084.583c-1.6-2.072-1.176-5.009,0.947-6.556l63.751-46.474
			c2.124-1.549,5.143-1.123,6.742,0.949l0,0c1.601,2.072,1.177,5.008-0.947,6.557l-63.751,46.473
			C397.58,1087.081,394.561,1086.655,392.961,1084.583z"/>
		<path style="fill:#95A6DB;" d="M408.318,1201.388L408.318,1201.388c-2.827,0.732-5.704-0.9-6.426-3.65l-21.68-82.479
			c-0.723-2.746,0.984-5.567,3.811-6.3l0,0c2.826-0.732,5.703,0.901,6.426,3.649l21.68,82.48
			C412.852,1197.835,411.146,1200.655,408.318,1201.388z"/>
		<path style="fill:#95A6DB;" d="M379.44,1095.71L379.44,1095.71c-2.746,0.938-5.773-0.479-6.759-3.162l-29.628-80.561
			c-0.987-2.685,0.439-5.619,3.186-6.557l0,0c2.746-0.938,5.772,0.477,6.76,3.161l29.628,80.562
			C383.612,1091.837,382.186,1094.772,379.44,1095.71z"/>
	</g>
	<path style="fill:#FFFFFF;" d="M236.621,128.179c0,22.319-18.093,40.413-40.412,40.413s-40.413-18.094-40.413-40.413
		c0-22.319,18.094-40.412,40.413-40.412S236.621,105.859,236.621,128.179z"/>
	<path style="fill:#FFFFFF;" d="M247.488,189.009c10.277,0,18.639,8.361,18.639,18.638c0,10.278-8.361,18.64-18.639,18.64
		s-18.639-8.361-18.639-18.64C228.85,197.37,237.211,189.009,247.488,189.009L247.488,189.009z M247.488,178.007
		c-16.37,0-29.641,13.27-29.641,29.64c0,16.371,13.27,29.642,29.641,29.642s29.641-13.27,29.641-29.642
		C277.129,191.277,263.858,178.007,247.488,178.007L247.488,178.007z"/>
	<g>
		<path style="fill:#95A6DB;" d="M2258.015,79.956c10.277,0,18.639,8.361,18.639,18.639c0,10.277-8.361,18.639-18.639,18.639
			s-18.639-8.361-18.639-18.639C2239.376,88.317,2247.737,79.956,2258.015,79.956L2258.015,79.956z M2258.015,68.954
			c-16.369,0-29.641,13.271-29.641,29.641s13.271,29.641,29.641,29.641c16.37,0,29.641-13.271,29.641-29.641
			S2274.385,68.954,2258.015,68.954L2258.015,68.954z"/>
	</g>
	<path style="fill:#FFFFFF;" d="M231.813,1252.013c10.277,0,18.639,8.361,18.639,18.639c0,10.277-8.361,18.639-18.639,18.639
		c-10.277,0-18.639-8.361-18.639-18.639C213.174,1260.374,221.535,1252.013,231.813,1252.013L231.813,1252.013z M231.813,1241.011
		c-16.37,0-29.641,13.271-29.641,29.641c0,16.369,13.27,29.641,29.641,29.641s29.642-13.271,29.642-29.641
		C261.454,1254.281,248.183,1241.011,231.813,1241.011L231.813,1241.011z"/>
	<path style="fill:#FFFFFF;" d="M1568.572,117.229c0,16.37-13.271,29.641-29.641,29.641c-16.371,0-29.641-13.27-29.641-29.641
		c0-16.369,13.27-29.64,29.641-29.64C1555.301,87.589,1568.572,100.859,1568.572,117.229z"/>
	<g>
		<g>
			<path style="fill:#FFFFFF;" d="M2943.785,1313.854c0,16.37-13.271,29.64-29.641,29.64c-16.37,0-29.641-13.269-29.641-29.64
				s13.271-29.642,29.641-29.642C2930.514,1284.212,2943.785,1297.483,2943.785,1313.854z"/>
		</g>
	</g>
	<path style="fill:#FFFFFF;" d="M2850.379,1158.324c15.96,0,30.199,9.538,36.275,24.3c3.985,9.683,3.963,20.339-0.066,30.005
		s-11.58,17.184-21.264,21.172c-4.785,1.969-9.799,2.968-14.9,2.968c-15.963,0-30.202-9.537-36.278-24.298
		c-3.986-9.685-3.963-20.341,0.065-30.007c4.029-9.666,11.581-17.185,21.266-21.172c4.783-1.97,9.797-2.968,14.9-2.968H2850.379
		L2850.379,1158.324z M2850.376,1135.184c-7.905,0-15.944,1.514-23.709,4.71c-31.841,13.107-47.028,49.545-33.921,81.386
		c9.912,24.077,33.16,38.629,57.678,38.629c7.905,0,15.945-1.513,23.709-4.709c31.84-13.107,47.027-49.544,33.92-81.386
		C2898.142,1149.737,2874.893,1135.183,2850.376,1135.184L2850.376,1135.184z"/>
</g>
</svg>
